<svg width="32" height="32" viewBox="0 0 32 32" fill="none" xmlns="http://www.w3.org/2000/svg">
<path d="M28 26.6669C28 27.0205 27.8595 27.3597 27.6095 27.6097C27.3594 27.8598 27.0203 28.0002 26.6667 28.0002H5.33333C4.97971 28.0002 4.64057 27.8598 4.39052 27.6097C4.14048 27.3597 4 27.0205 4 26.6669V12.6536C3.99986 12.4504 4.04616 12.2499 4.13535 12.0673C4.22455 11.8847 4.35429 11.725 4.51467 11.6002L15.1813 3.3029C15.4154 3.12083 15.7035 3.02197 16 3.02197C16.2965 3.02197 16.5846 3.12083 16.8187 3.3029L27.4853 11.6002C27.6457 11.725 27.7754 11.8847 27.8646 12.0673C27.9538 12.2499 28.0001 12.4504 28 12.6536V26.6669ZM25.3333 25.3336V13.3042L16 6.04556L6.66667 13.3042V25.3336H25.3333Z" fill="black"/>
</svg>
