<svg width="32" height="32" viewBox="0 0 32 32" fill="none" xmlns="http://www.w3.org/2000/svg">
<path d="M16 26.6665C10.12 26.6665 5.33332 21.8798 5.33332 15.9998C5.33332 10.1198 10.12 5.33317 16 5.33317C21.88 5.33317 26.6667 10.1198 26.6667 15.9998C26.6667 21.8798 21.88 26.6665 16 26.6665ZM16 2.6665C14.249 2.6665 12.5152 3.01138 10.8975 3.68144C9.27987 4.35151 7.81001 5.33363 6.5719 6.57175C4.07141 9.07223 2.66666 12.4636 2.66666 15.9998C2.66666 19.5361 4.07141 22.9274 6.5719 25.4279C7.81001 26.666 9.27987 27.6482 10.8975 28.3182C12.5152 28.9883 14.249 29.3332 16 29.3332C19.5362 29.3332 22.9276 27.9284 25.4281 25.4279C27.9286 22.9274 29.3333 19.5361 29.3333 15.9998C29.3333 14.2489 28.9884 12.5151 28.3184 10.8974C27.6483 9.27972 26.6662 7.80986 25.4281 6.57175C24.19 5.33363 22.7201 4.35151 21.1024 3.68144C19.4848 3.01138 17.7509 2.6665 16 2.6665ZM17.3333 9.33317H14.6667V14.6665H9.33332V17.3332H14.6667V22.6665H17.3333V17.3332H22.6667V14.6665H17.3333V9.33317Z" fill="black"/>
</svg>
