<svg width="32" height="32" viewBox="0 0 32 32" fill="none" xmlns="http://www.w3.org/2000/svg">
<rect width="32" height="32" stroke="black"/>
<path d="M16 18.417C18.0339 18.417 21.0628 18.9284 23.5879 19.8574C24.8504 20.3219 26.0039 20.8971 26.8457 21.5762C27.6844 22.2529 28.25 23.0639 28.25 24V28.25H3.75V24C3.75 23.0637 4.31626 22.252 5.15527 21.5752C5.99705 20.8963 7.14981 20.3218 8.41211 19.8574C10.9373 18.9284 13.9664 18.417 16 18.417ZM16 20.25C14.196 20.25 11.3804 20.719 9.04492 21.5781C8.02256 21.9543 7.17007 22.3773 6.55469 22.8145L6.30566 23.0029C5.6655 23.52 5.58301 23.8602 5.58301 24V26.417H26.417V24C26.417 23.8608 26.3341 23.5192 25.6934 23.0029C25.0698 22.4996 24.1236 22.0081 22.9551 21.5781C20.6196 20.719 17.804 20.25 16 20.25ZM16 3.75C19.8214 3.75 22.917 6.84559 22.917 10.667C22.9168 14.4882 19.8213 17.583 16 17.583C12.1787 17.583 9.08318 14.4882 9.08301 10.667C9.08301 6.84559 12.1786 3.75 16 3.75ZM16 5.58301C13.1914 5.58301 10.917 7.8584 10.917 10.667C10.9172 13.4754 13.1915 15.75 16 15.75C18.8085 15.75 21.0828 13.4754 21.083 10.667C21.083 7.8584 18.8086 5.58301 16 5.58301Z" fill="black" stroke="black" stroke-width="0.5"/>
</svg>
