<svg width="25" height="27" viewBox="0 0 25 27" fill="none" xmlns="http://www.w3.org/2000/svg">
<path d="M2.66667 0H14.6667C15.3739 0 16.0522 0.280951 16.5523 0.781048C17.0524 1.28115 17.3333 1.95942 17.3333 2.66667V5.33333H14.6667V2.66667H2.66667V24H14.6667V21.3333H17.3333V24C17.3333 24.7072 17.0524 25.3855 16.5523 25.8856C16.0522 26.3857 15.3739 26.6667 14.6667 26.6667H2.66667C1.95942 26.6667 1.28115 26.3857 0.781048 25.8856C0.280951 25.3855 0 24.7072 0 24V2.66667C0 1.95942 0.280951 1.28115 0.781048 0.781048C1.28115 0.280951 1.95942 0 2.66667 0Z" fill="#DC2627"/>
<path d="M16.12 18.1203L18 20.0003L24.6666 13.3337L18 6.66699L16.12 8.54699L19.56 12.0003H6.66663V14.667H19.56L16.12 18.1203Z" fill="#DC2627"/>
</svg>
