<svg width="25" height="25" viewBox="0 0 25 25" fill="none" xmlns="http://www.w3.org/2000/svg">
<path d="M12.5 14.917C14.5339 14.917 17.5628 15.4284 20.0879 16.3574C21.3504 16.8219 22.5039 17.3971 23.3457 18.0762C24.1844 18.7529 24.75 19.5639 24.75 20.5V24.75H0.25V20.5C0.25 19.5637 0.816261 18.752 1.65527 18.0752C2.49705 17.3963 3.64981 16.8218 4.91211 16.3574C7.43733 15.4284 10.4664 14.917 12.5 14.917ZM12.5 16.75C10.696 16.75 7.88043 17.219 5.54492 18.0781C4.52256 18.4543 3.67007 18.8773 3.05469 19.3145L2.80566 19.5029C2.1655 20.02 2.08301 20.3602 2.08301 20.5V22.917H22.917V20.5C22.917 20.3608 22.8341 20.0192 22.1934 19.5029C21.5698 18.9996 20.6236 18.5081 19.4551 18.0781C17.1196 17.219 14.304 16.75 12.5 16.75ZM12.5 0.25C16.3214 0.25 19.417 3.34559 19.417 7.16699C19.4168 10.9882 16.3213 14.083 12.5 14.083C8.6787 14.083 5.58318 10.9882 5.58301 7.16699C5.58301 3.34559 8.6786 0.25 12.5 0.25ZM12.5 2.08301C9.6914 2.08301 7.41699 4.3584 7.41699 7.16699C7.41717 9.97544 9.69151 12.25 12.5 12.25C15.3085 12.25 17.5828 9.97544 17.583 7.16699C17.583 4.3584 15.3086 2.08301 12.5 2.08301Z" fill="black" stroke="black" stroke-width="0.5"/>
</svg>
